HIERARCHY
ROOT Hips
{
 OFFSET 0.000000 0.000000 0.000000
 CHANNELS 6 Xposition Yposition Zposition Yrotation Xrotation Zrotation
 JOINT Chest
 {
  OFFSET 0.000000 9.585900 0.002600
  CHANNELS 3 Yrotation Xrotation Zrotation
  JOINT Chest2
  {
   OFFSET 0.000000 9.601200 -0.005300
   CHANNELS 3 Yrotation Xrotation Zrotation
   JOINT Chest3
   {
    OFFSET 0.000000 9.561800 0.000000
    CHANNELS 3 Yrotation Xrotation Zrotation
    JOINT Chest4
    {
     OFFSET 0.000000 9.552100 0.000000
     CHANNELS 3 Yrotation Xrotation Zrotation
     JOINT Neck
     {
      OFFSET 0.000000 14.453000 0.000000
      CHANNELS 3 Yrotation Xrotation Zrotation
      JOINT Head
      {
       OFFSET 0.000000 8.936500 -0.011300
       CHANNELS 3 Yrotation Xrotation Zrotation
       End Site
       {
        OFFSET 0.000000 17.073600 -0.006000
       }
      }
     }
     JOINT RightCollar
     {
      OFFSET -2.921100 9.558500 0.000000
      CHANNELS 3 Yrotation Xrotation Zrotation
      JOINT RightShoulder
      {
       OFFSET -13.519700 0.000000 0.000000
       CHANNELS 3 Yrotation Xrotation Zrotation
       JOINT RightElbow
       {
        OFFSET 0.000000 -29.696600 0.000000
        CHANNELS 3 Yrotation Xrotation Zrotation
        JOINT RightWrist
        {
         OFFSET 0.000000 -24.004700 0.000000
         CHANNELS 3 Yrotation Xrotation Zrotation
         End Site
         {
          OFFSET 0.000000 -17.728500 0.000000
         }
        }
       }
      }
     }
     JOINT LeftCollar
     {
      OFFSET 2.921100 9.558500 0.000000
      CHANNELS 3 Yrotation Xrotation Zrotation
      JOINT LeftShoulder
      {
       OFFSET 13.519700 0.000000 0.000000
       CHANNELS 3 Yrotation Xrotation Zrotation
       JOINT LeftElbow
       {
        OFFSET 0.000000 -29.696600 0.000000
        CHANNELS 3 Yrotation Xrotation Zrotation
        JOINT LeftWrist
        {
         OFFSET 0.000000 -24.004700 0.000000
         CHANNELS 3 Yrotation Xrotation Zrotation
         End Site
         {
          OFFSET 0.000000 -17.728500 0.000000
         }
        }
       }
      }
     }
    }
   }
  }
 }
 JOINT RightHip
 {
  OFFSET -7.771700 -0.012900 -0.001300
  CHANNELS 3 Yrotation Xrotation Zrotation
  JOINT RightKnee
  {
   OFFSET 0.000000 -40.869800 0.001200
   CHANNELS 3 Yrotation Xrotation Zrotation
   JOINT RightAnkle
   {
    OFFSET 0.000000 -39.717900 0.002100
    CHANNELS 3 Yrotation Xrotation Zrotation
    JOINT RightToe
    {
     OFFSET 0.000000 -4.965400 11.033500
     CHANNELS 3 Yrotation Xrotation Zrotation
     End Site
     {
      OFFSET 0.000000 -1.423100 5.872300
     }
    }
   }
  }
 }
 JOINT LeftHip
 {
  OFFSET 7.771700 -0.012900 -0.001300
  CHANNELS 3 Yrotation Xrotation Zrotation
  JOINT LeftKnee
  {
   OFFSET 0.000000 -40.869800 0.001200
   CHANNELS 3 Yrotation Xrotation Zrotation
   JOINT LeftAnkle
   {
    OFFSET 0.000000 -39.717900 0.002100
    CHANNELS 3 Yrotation Xrotation Zrotation
    JOINT LeftToe
    {
     OFFSET 0.000000 -4.965400 11.033500
     CHANNELS 3 Yrotation Xrotation Zrotation
     End Site
     {
      OFFSET 0.000000 -1.423100 5.872300
     }
    }
   }
  }
 }
}
MOTION
Frames: 16
Frame Time: 0.008333
0.000000 85.388000 0.000000 0.000000 -5.767877 0.000000 0.000000 11.653817 0.000000 0.000000 -5.885947 0.000000 0.000000 -0.000000 0.000000 0.000000 -0.000000 0.000000 0.000000 12.528835 0.000000 0.000000 0.711642 0.000000 0.000000 -0.000000 0.000000 0.000000 0.000000 -90.000000 0.000000 -2.309062 0.000000 0.000000 2.309062 0.000000 0.000000 -0.000000 0.000000 0.000000 -0.000000 90.000000 0.000000 -2.309062 0.000000 0.000000 2.309062 0.000000 0.000000 8.520406 0.000000 0.000000 1.905762 0.000000 -0.000000 -4.658285 0.000000 0.000000 -0.000000 0.000000 0.000000 8.520406 0.000000 0.000000 1.905762 0.000000 -0.000000 -4.658285 0.000000 0.000000 -0.000000 0.000000
-23.674269 57.946110 13.381128 176.908830 -50.052776 -1.836365 3.708041 21.568835 4.221292 1.829921 12.382774 2.211971 2.389643 15.453391 2.850978 1.884704 12.332046 2.238027 3.412282 17.994644 1.015764 5.913825 -2.349206 0.736705 0.731693 2.198117 0.014263 -3.125563 -16.985933 -5.455607 -26.737622 -45.013938 68.663596 9.886107 -4.265302 -20.678731 -12.813695 -3.728048 0.917809 -10.822987 -47.178125 22.319384 67.362166 -67.586231 -87.217082 -7.367883 8.185415 -0.183486 2.027206 -21.970790 -4.145545 -33.269594 73.642836 -38.000017 6.562709 -13.226739 11.103537 -0.007950 -0.100216 -0.010772 -3.263309 -18.953511 6.320517 84.015445 84.301945 83.006274 -0.335560 -22.350787 -15.587204 0.012362 0.042635 0.029151
-23.678064 57.945646 13.377531 176.909531 -50.063664 -1.835618 3.715319 21.569188 4.227868 1.845438 12.367423 2.225617 2.435630 15.390778 2.882224 1.852225 12.358062 2.234193 3.420233 18.006810 1.033708 5.936554 -2.330277 0.772370 0.645432 2.180441 0.052984 -3.108070 -16.961007 -5.468115 -26.704378 -44.954414 68.646767 9.892165 -4.241597 -20.679887 -12.991666 -3.769758 0.896106 -10.861149 -47.130988 22.827758 66.679521 -67.880608 -86.623184 -7.583924 7.477687 -0.801872 2.042557 -21.961095 -4.148491 -33.296777 73.645712 -38.017320 6.554642 -13.224571 11.105053 -0.002762 -0.102795 -0.007597 -3.253475 -18.943549 6.325470 84.108943 84.306983 83.085212 -0.341896 -22.357722 -15.567507 0.000921 0.043691 0.024512
-23.680804 57.946694 13.371926 176.912487 -50.090893 -1.847268 3.734328 21.563185 4.255062 1.851384 12.359419 2.233843 2.446736 15.354047 2.887664 1.834459 12.396287 2.238502 3.457284 17.971224 1.055107 5.964209 -2.307561 0.824023 0.584617 2.125672 0.093135 -3.089967 -16.936044 -5.474494 -26.656994 -44.877149 68.606292 9.890039 -4.215152 -20.684925 -13.192140 -3.861583 0.899830 -11.103137 -46.990410 23.463045 65.550121 -68.423443 -85.233066 -7.675552 6.512854 -1.601871 2.052177 -21.930942 -4.139525 -33.314944 73.643408 -38.030797 6.579909 -13.226932 11.107260 0.005448 -0.103670 -0.003294 -3.217710 -18.917238 6.338279 84.145112 84.322663 83.137348 -0.354371 -22.364800 -15.551312 -0.001628 0.042419 0.024352
-23.683073 57.947098 13.366139 176.920821 -50.118402 -1.870734 3.759317 21.511654 4.287779 1.851543 12.375704 2.242077 2.454972 15.312376 2.899079 1.855264 12.355479 2.250198 3.459818 18.009703 1.086526 5.983578 -2.276489 0.874543 0.480905 2.147221 0.138049 -3.062329 -16.878173 -5.490382 -26.618447 -44.800448 68.567112 9.880475 -4.184599 -20.698310 -13.484494 -3.888785 0.908467 -11.700501 -46.658460 24.389781 64.061219 -69.152524 -83.049523 -7.602015 5.376884 -2.457431 2.056799 -21.901308 -4.115456 -33.356398 73.640930 -38.069123 6.578805 -13.227167 11.114173 -0.005629 -0.102690 -0.001579 -3.154739 -18.899429 6.358963 84.205306 84.349682 83.243515 -0.373317 -22.367207 -15.533861 0.002307 0.032654 0.031395
-23.687955 57.947450 13.359559 176.932197 -50.151399 -1.885610 3.769395 21.458901 4.306199 1.871221 12.308530 2.258776 2.438714 15.342101 2.908387 1.872420 12.302650 2.261029 3.471256 18.063116 1.121416 6.016798 -2.232490 0.927016 0.385142 2.177243 0.179058 -3.017863 -16.760831 -5.530192 -26.620649 -44.748313 68.562372 9.859913 -4.150325 -20.729377 -13.806456 -3.919339 0.939227 -12.556397 -46.155080 25.577317 62.110310 -69.765814 -80.118039 -7.495748 4.340008 -3.156651 2.061244 -21.863751 -4.104171 -33.382975 73.638206 -38.095877 6.556906 -13.227595 11.113986 0.004884 -0.101547 0.011586 -3.111643 -18.874159 6.364585 84.295834 84.369587 83.361982 -0.381456 -22.369962 -15.520130 -0.000580 0.024701 0.036285
-23.694625 57.946098 13.353913 176.947255 -50.176429 -1.897903 3.767005 21.389464 4.314609 1.873976 12.277362 2.270129 2.434846 15.333783 2.919322 1.873942 12.277395 2.270104 3.503764 18.106839 1.155141 6.064794 -2.151953 0.980030 0.314100 2.173899 0.210752 -3.006640 -16.810458 -5.478009 -26.406163 -44.573931 68.329003 9.826007 -4.114781 -20.777307 -14.095835 -3.984295 1.012844 -13.445593 -45.571927 26.794159 59.562175 -69.956099 -76.496916 -7.552519 3.694136 -3.556970 2.077642 -21.827594 -4.103214 -33.431742 73.630448 -38.143508 6.556498 -13.245300 11.131795 0.000560 -0.092541 0.014229 -3.081839 -18.856549 6.363873 84.418088 84.386258 83.503108 -0.384009 -22.377228 -15.510760 -0.000717 0.022902 0.038350
-23.700320 57.943829 13.349140 176.956064 -50.198461 -1.916416 3.765549 21.334055 4.330383 1.873207 12.250906 2.279502 2.434056 15.300655 2.930912 1.873213 12.250944 2.279553 3.541440 18.182725 1.188153 6.122168 -2.011585 1.031387 0.248485 2.164327 0.233456 -2.960336 -16.825384 -5.444223 -26.232357 -44.429901 68.116389 9.766154 -4.070421 -20.829287 -14.329274 -4.039942 1.141367 -14.203230 -44.984869 27.833532 56.362317 -69.732937 -72.213777 -7.725082 3.495893 -3.655611 2.077630 -21.799063 -4.091474 -33.430444 73.627147 -38.141145 6.554252 -13.253830 11.129834 -0.002238 -0.086432 0.023520 -3.053771 -18.841189 6.374447 84.529690 84.401197 83.636724 -0.389131 -22.386422 -15.506355 0.005654 0.023012 0.041310
-23.705258 57.942671 13.343940 176.971727 -50.231449 -1.949065 3.759366 21.296480 4.353715 1.872612 12.224810 2.289512 2.433407 15.267893 2.943232 1.872630 12.224825 2.289623 3.564436 18.292948 1.207446 6.192672 -1.814472 1.083668 0.178855 2.145574 0.248911 -2.881554 -16.829521 -5.419416 -26.088245 -44.289180 67.911644 9.697189 -4.014368 -20.874777 -14.506248 -4.075847 1.328140 -14.752380 -44.470255 28.630428 52.349575 -69.296894 -67.141729 -7.801683 3.551154 -3.504686 2.067080 -21.759156 -4.070251 -33.422382 73.622674 -38.129126 6.553014 -13.258623 11.125912 -0.016963 -0.080957 0.024823 -3.035190 -18.812829 6.393163 84.587317 84.412333 83.720078 -0.400388 -22.392149 -15.506377 0.020065 0.022134 0.044500
-23.711412 57.941098 13.339820 176.983245 -50.262463 -1.975176 3.753001 21.279411 4.372003 1.871662 12.187768 2.299642 2.434375 15.238617 2.956577 1.867753 12.265318 2.286060 3.567981 18.356107 1.210786 6.284156 -1.581423 1.140884 0.111830 2.046952 0.275060 -2.776236 -16.854729 -5.393913 -25.953273 -44.067495 67.702729 9.681743 -3.960135 -20.924924 -14.623415 -4.150423 1.585976 -15.089295 -44.110367 29.220789 47.432583 -68.708340 -61.234999 -7.745517 3.634430 -3.100449 2.066693 -21.718818 -4.048739 -33.445396 73.610525 -38.154594 6.565576 -13.269917 11.132732 0.004763 -0.072298 0.027392 -3.030734 -18.784189 6.411502 84.708925 84.417988 83.842963 -0.407539 -22.404402 -15.496223 0.011765 0.026745 0.040715
-23.718601 57.939377 13.336974 176.980308 -50.292282 -1.986503 3.758820 21.293258 4.387517 1.866422 12.129122 2.310494 2.436391 15.259992 2.957974 1.869521 12.248593 2.290962 3.612848 18.416805 1.243983 6.330669 -1.316967 1.175633 0.040025 1.948977 0.307440 -2.650356 -16.901375 -5.374030 -25.824971 -43.858336 67.486924 9.635664 -3.885593 -20.965993 -14.687327 -4.201389 1.858042 -15.265077 -43.936721 29.687616 41.900385 -67.857014 -54.806091 -7.751508 3.639550 -2.398075 2.082720 -21.678162 -4.027831 -33.477146 73.592135 -38.191160 6.556780 -13.278685 11.145107 -0.001856 -0.060832 0.030985 -3.016649 -18.756332 6.427881 84.845369 84.415023 83.972788 -0.421691 -22.418521 -15.475636 0.010743 0.032097 0.032810
-23.725322 57.938034 13.335485 176.980667 -50.322905 -2.003891 3.756202 21.268503 4.403197 1.860629 12.120785 2.328041 2.434175 15.219418 2.978836 1.872094 12.173099 2.321203 3.680722 18.648049 1.282496 6.333073 -1.102345 1.163869 -0.042658 1.980704 0.294788 -2.512023 -16.976732 -5.362242 -25.713607 -43.626547 67.285582 9.599820 -3.812314 -21.002215 -14.702957 -4.150293 2.043001 -15.349345 -43.911672 30.115686 36.227023 -66.661145 -48.287671 -8.008007 3.544704 -1.417326 2.089047 -21.640551 -4.005232 -33.465151 73.585000 -38.192788 6.552750 -13.283438 11.160598 -0.010944 -0.055796 0.029763 -2.996724 -18.729139 6.445036 84.899876 84.421690 84.041540 -0.429985 -22.420889 -15.475563 0.018766 0.032842 0.033024
-23.732305 57.936760 13.335720 176.973490 -50.352311 -2.012919 3.753021 21.247354 4.419389 1.848362 12.118284 2.346529 2.434498 15.202198 2.990243 1.861053 12.148654 2.352227 3.705600 18.785122 1.277621 6.385358 -0.893393 1.166932 -0.105717 1.956818 0.276208 -2.365697 -17.081020 -5.357562 -25.633757 -43.379551 67.116555 9.576742 -3.741067 -21.030247 -14.661047 -4.190462 2.225770 -15.417487 -43.956017 30.568868 30.687986 -65.177119 -41.849155 -8.474901 3.370843 -0.277687 2.092886 -21.609253 -3.985507 -33.450860 73.578603 -38.198328 6.552524 -13.282310 11.176504 -0.023246 -0.054319 0.026296 -2.979307 -18.703282 6.459642 84.947751 84.428787 84.099913 -0.438139 -22.422949 -15.480383 0.023285 0.030796 0.042630
-23.737934 57.939233 13.334972 176.966518 -50.408137 -2.026804 3.712942 21.220790 4.448662 1.854128 12.159794 2.350491 2.420411 15.199151 3.006038 1.849498 12.146240 2.365182 3.726810 18.865058 1.234097 6.448946 -0.701587 1.198846 -0.151518 1.914398 0.249687 -2.212582 -17.200902 -5.359246 -25.587787 -43.130545 66.985821 9.561525 -3.668865 -21.049275 -14.574459 -4.285658 2.391463 -15.582842 -43.982894 31.122530 25.411426 -63.498038 -35.490907 -8.907458 3.187057 0.857714 2.111534 -21.540208 -3.955310 -33.405454 73.558332 -38.170078 6.536554 -13.275853 11.204089 -0.041368 -0.050480 0.021728 -2.962100 -18.648184 6.470696 84.959831 84.432001 84.127428 -0.439575 -22.422939 -15.482574 0.035142 0.028523 0.040927
-23.743053 57.941429 13.336506 176.962674 -50.459952 -2.042840 3.682532 21.235930 4.475512 1.836947 12.161607 2.362233 2.390498 15.188803 3.032835 1.837004 12.161612 2.362261 3.766537 18.952321 1.248043 6.502970 -0.561854 1.164460 -0.183927 1.871889 0.210157 -2.055988 -17.320520 -5.368095 -25.565601 -42.887566 66.892733 9.552026 -3.601958 -21.056659 -14.451155 -4.411838 2.521003 -15.999725 -43.901798 31.872562 20.635518 -61.634581 -29.347360 -9.068023 3.066349 1.882631 2.130110 -21.478580 -3.930005 -33.422482 73.542164 -38.173488 6.517892 -13.277819 11.201773 -0.034260 -0.042310 0.024463 -2.967245 -18.595269 6.482997 84.956544 84.432820 84.123424 -0.438028 -22.421665 -15.484208 0.038216 0.028758 0.036435
-23.748897 57.941708 13.341510 176.954412 -50.495924 -2.048019 3.637362 21.236812 4.491062 1.814688 12.166747 2.372299 2.362850 15.195302 3.044792 1.814743 12.166712 2.372337 3.803767 19.019717 1.263340 6.566226 -0.455161 1.119714 -0.205214 1.825161 0.164149 -1.905270 -17.425344 -5.384697 -25.561518 -42.655455 66.842533 9.553986 -3.545328 -21.050058 -14.302410 -4.569945 2.617771 -16.812280 -43.632014 32.880980 16.677923 -59.524235 -23.658124 -8.869915 3.048656 2.783780 2.155395 -21.434108 -3.909061 -33.409764 73.521947 -38.159939 6.495387 -13.269625 11.214812 -0.028206 -0.036951 0.013886 -2.968393 -18.559703 6.489386 84.910858 84.434104 84.076811 -0.440234 -22.418102 -15.484130 0.036527 0.032562 0.029549
